<?xml version="1.0" encoding="UTF-8"?>
<svg width="700pt" height="700pt" version="1.1" viewBox="0 0 700 700" xmlns="http://www.w3.org/2000/svg" xmlns:xlink="http://www.w3.org/1999/xlink">
 <g>
  <path d="m122.5 280c0-125.64 101.86-227.5 227.5-227.5s227.5 101.86 227.5 227.5-101.86 227.5-227.5 227.5-227.5-101.86-227.5-227.5zm227.5-192.5c-106.32 0-192.5 86.184-192.5 192.5s86.184 192.5 192.5 192.5 192.5-86.184 192.5-192.5-86.184-192.5-192.5-192.5z" fill-rule="evenodd"/>
  <path d="m274.17 280c0-9.6641 7.8359-17.5 17.5-17.5h116.64c9.668 0 17.5 7.8359 17.5 17.5s-7.832 17.5-17.5 17.5h-116.64c-9.6641 0-17.5-7.8359-17.5-17.5z" fill-rule="evenodd"/>
  <path d="m350 204.17c9.6641 0 17.5 7.8359 17.5 17.5v116.64c0 9.668-7.8359 17.5-17.5 17.5s-17.5-7.832-17.5-17.5v-116.64c0-9.6641 7.8359-17.5 17.5-17.5z" fill-rule="evenodd"/>
 </g>
</svg>
